# File created by Blade
# Date/Time:  Thu Jan 22 19:29:39 2015
# Frame Rate: 120.000 fps
#------------------------------------------------------
:FULLY-SPECIFIED
:DEGREES
1241
root 2.460077 33.980417 1.240859 92.258157 -17.295766 -26.852998
RightUpLeg -5.270254 17.117067 -28.182184
RightLeg 150.943145 -0.000000 -0.000000
RightFoot 35.625050 5.517874 4.908498
RightToeBase -19.371558 -0.000000 0.000000
LeftUpLeg -92.356283 15.401067 6.480450
LeftLeg 28.588159 -0.000000 -0.000000
LeftFoot -24.417234 12.002564 -9.626400
LeftToeBase 6.700535 -0.000000 -0.000000
Spine -18.391560 -5.096283 0.100225
RightShoulder -18.686133 -35.508277 -15.442029
RightArm 8.605033 -63.770688 62.400980
RightForeArm 36.763349 -0.000000 42.591113
RightHand -10.690618 -0.000000 13.487007
RightHandThumb1 -24.326973 -0.000000 -32.862282
LeftShoulder -34.559966 7.268464 33.658500
LeftArm 157.387370 -43.104501 -119.882155
LeftForeArm -13.374098 -0.000000 61.125620
LeftHand -15.157162 0.000000 10.881610
LeftHandThumb1 -26.253704 0.000000 33.147579
Head -12.808635 29.645271 -14.254485
1242
root 2.461052 33.979689 1.238330 92.229032 -17.280021 -26.854312
RightUpLeg -5.265492 17.109539 -28.215365
RightLeg 150.916198 -0.000000 -0.000000
RightFoot 35.625736 5.476925 4.913517
RightToeBase -19.287542 -0.000000 0.000000
LeftUpLeg -92.357260 15.410028 6.454960
LeftLeg 28.611475 -0.000000 -0.000000
LeftFoot -24.412643 11.961503 -9.605798
LeftToeBase 6.695537 -0.000000 -0.000000
Spine -18.364901 -5.099955 0.110333
RightShoulder -18.674910 -35.487780 -15.465444
RightArm 8.589461 -63.775241 62.434155
RightForeArm 36.711913 -0.000000 42.544102
RightHand -10.679320 -0.000000 13.477761
RightHandThumb1 -24.326973 -0.000000 -32.862282
LeftShoulder -34.549143 7.252265 33.656209
LeftArm 157.396623 -43.111094 -119.884674
LeftForeArm -13.411456 0.000000 61.049896
LeftHand -15.133183 -0.000000 10.930826
LeftHandThumb1 -26.253704 0.000000 33.147579
Head -12.788957 29.661171 -14.327925
1243
root 2.461816 33.977814 1.235913 92.194969 -17.242302 -26.853896
RightUpLeg -5.240298 17.123196 -28.183905
RightLeg 150.884523 -0.000000 -0.000000
RightFoot 35.582886 5.418467 4.926056
RightToeBase -19.241984 -0.000000 0.000000
LeftUpLeg -92.358315 15.410699 6.478478
LeftLeg 28.652583 -0.000000 -0.000000
LeftFoot -24.412334 11.954446 -9.590800
LeftToeBase 6.698499 -0.000000 -0.000000
Spine -18.341899 -5.124915 0.158487
RightShoulder -18.579470 -35.427997 -15.521193
RightArm 8.333291 -63.697577 62.666144
RightForeArm 36.639776 -0.000000 42.511227
RightHand -10.624331 -0.000000 13.489099
RightHandThumb1 -24.326973 -0.000000 -32.862282
LeftShoulder -34.541871 7.230444 33.668396
LeftArm 157.372683 -43.129983 -119.870205
LeftForeArm -13.392633 -0.000000 60.980994
LeftHand -15.133237 0.000000 10.945149
LeftHandThumb1 -26.253704 0.000000 33.147579
Head -12.746676 29.732384 -14.403361
1244
root 2.461567 33.975043 1.233920 92.162320 -17.206542 -26.856854
RightUpLeg -5.219924 17.156350 -28.167152
RightLeg 150.828411 -0.000000 -0.000000
RightFoot 35.612529 5.401149 4.945785
RightToeBase -19.213349 -0.000000 0.000000
LeftUpLeg -92.356953 15.414086 6.497804
LeftLeg 28.690605 -0.000000 -0.000000
LeftFoot -24.413129 11.966525 -9.529691
LeftToeBase 6.625191 -0.000000 -0.000000
Spine -18.327735 -5.154429 0.203607
RightShoulder -18.530966 -35.406933 -15.558452
RightArm 8.260325 -63.637048 62.731523
RightForeArm 36.554037 -0.000000 42.446591
RightHand -10.549135 -0.000000 13.503093
RightHandThumb1 -24.326973 -0.000000 -32.862282
LeftShoulder -34.523626 7.230615 33.672179
LeftArm 157.383285 -43.119831 -119.880546
LeftForeArm -13.302692 0.000000 60.907570
LeftHand -15.103733 -0.000000 10.934662
LeftHandThumb1 -26.253704 0.000000 33.147579
Head -12.688263 29.766108 -14.478012
1245
root 2.459704 33.971217 1.230810 92.137037 -17.148527 -26.853857
RightUpLeg -5.213112 17.215614 -28.122558
RightLeg 150.768626 -0.000000 -0.000000
RightFoot 35.636807 5.406481 5.009795
RightToeBase -19.212804 -0.000000 0.000000
LeftUpLeg -92.376568 15.415547 6.532166
LeftLeg 28.741033 -0.000000 -0.000000
LeftFoot -24.415766 11.975261 -9.464370
LeftToeBase 6.539188 -0.000000 -0.000000
Spine -18.331491 -5.181470 0.255910
RightShoulder -18.556461 -35.254461 -15.603415
RightArm 8.118136 -63.753744 62.799296
RightForeArm 36.593932 -0.000000 42.399582
RightHand -10.565851 -0.000000 13.456846
RightHandThumb1 -24.326973 -0.000000 -32.862282
LeftShoulder -34.503624 7.250944 33.698027
LeftArm 157.390957 -43.064427 -119.891924
LeftForeArm -13.239371 0.000000 60.852673
LeftHand -15.152738 -0.000000 10.957985
LeftHandThumb1 -26.253704 0.000000 33.147579
Head -12.598144 29.819460 -14.461264
